<?xml version="1.0" standalone="no"?>
<!DOCTYPE svg PUBLIC "-//W3C//DTD SVG 20010904//EN"
 "http://www.w3.org/TR/2001/REC-SVG-20010904/DTD/svg10.dtd">
<svg version="1.0" xmlns="http://www.w3.org/2000/svg"
 width="700.000000pt" height="700.000000pt" viewBox="0 0 700.000000 700.000000"
 preserveAspectRatio="xMidYMid meet">
<metadata>
Created by potrace 1.14, written by Peter Selinger 2001-2017
</metadata>
<g transform="translate(0.000000,700.000000) scale(0.100000,-0.100000)"
fill="#000000" stroke="none">
<path d="M3378 6415 c-2 -1 -48 -5 -103 -9 -55 -3 -120 -9 -145 -12 -45 -6
-278 -48 -315 -58 -410 -103 -772 -278 -1105 -535 -224 -173 -453 -416 -621
-661 -241 -350 -429 -835 -475 -1225 -4 -27 -8 -52 -9 -55 -8 -13 -19 -227
-19 -360 0 -225 11 -345 50 -545 155 -815 649 -1523 1360 -1953 324 -195 731
-341 1079 -387 28 -4 61 -9 75 -11 108 -17 415 -23 589 -11 57 4 107 9 110 11
3 2 33 6 66 10 33 3 114 18 180 31 160 34 146 30 260 66 849 266 1528 893
1855 1713 91 229 144 432 184 706 26 176 26 538 1 730 -55 409 -190 799 -395
1140 -167 278 -403 553 -640 745 -52 42 -104 84 -115 93 -55 44 -263 176 -364
231 -346 185 -717 297 -1121 336 -64 7 -377 15 -382 10z m297 -590 c88 -5 186
-17 235 -29 14 -3 36 -8 50 -10 273 -45 632 -200 890 -385 558 -399 905 -1004
975 -1701 7 -69 7 -327 0 -395 -7 -69 -17 -149 -21 -170 -2 -11 -7 -35 -10
-54 -3 -18 -8 -43 -10 -55 -3 -11 -7 -32 -10 -46 -3 -14 -12 -50 -20 -80 -9
-30 -18 -62 -19 -70 -13 -58 -81 -232 -136 -346 -154 -321 -404 -623 -709
-857 -82 -63 -263 -173 -360 -219 -138 -66 -172 -80 -286 -117 -578 -194
-1183 -159 -1738 99 -131 61 -346 193 -433 267 -12 10 -37 29 -55 43 -53 39
-280 266 -318 318 -19 26 -40 53 -47 60 -29 31 -126 177 -182 275 -142 247
-256 589 -286 857 -3 30 -8 73 -11 95 -5 46 -5 335 0 380 2 17 6 62 10 100 17
162 90 440 163 615 202 484 594 911 1068 1164 144 77 426 184 530 202 17 2 44
9 60 14 17 5 46 11 65 14 19 2 51 7 70 10 61 11 112 16 215 22 55 4 101 7 102
8 3 3 105 -1 218 -9z"/>
<path d="M3210 4083 l0 -583 -437 0 -438 0 580 -580 c319 -319 584 -579 588
-577 4 1 266 261 583 577 l575 575 -436 3 -435 2 0 583 0 583 -290 0 -290 1 0
-584z"/>
</g>
</svg>
