<svg id="svg" version="1.1" xmlns="http://www.w3.org/2000/svg" xmlns:xlink="http://www.w3.org/1999/xlink" width="400" height="263.8655462184874" viewBox="0, 0, 400,263.8655462184874"><g id="svgg"><path id="path0" d="M67.424 0.289 C 67.326 0.448,52.704 10.393,34.930 22.390 L 2.614 44.202 2.813 48.739 C 2.923 51.235,3.320 57.513,3.696 62.689 C 4.073 67.866,4.612 75.504,4.896 79.664 C 5.180 83.824,5.518 88.045,5.647 89.045 L 5.882 90.862 33.109 104.103 C 82.349 128.048,89.411 131.351,100.223 135.493 C 105.067 137.349,114.330 140.268,117.620 140.976 C 118.837 141.237,121.592 141.840,123.743 142.315 C 129.743 143.641,140.904 145.291,153.613 146.732 C 188.365 150.672,200.247 156.464,226.397 182.206 C 256.038 211.384,260.233 214.279,303.697 235.549 C 330.913 248.867,359.786 262.858,360.846 263.241 C 361.912 263.626,362.087 263.524,373.316 255.961 C 394.854 241.454,399.043 238.575,399.196 238.178 C 399.339 237.804,399.021 232.543,397.830 215.630 C 397.557 211.748,397.025 204.185,396.647 198.824 C 396.270 193.462,395.580 183.479,395.113 176.639 C 394.096 161.715,393.787 158.349,393.401 158.000 C 393.241 157.854,383.731 153.191,372.269 147.636 C 330.123 127.213,325.922 125.092,320.750 121.634 C 319.406 120.735,318.234 120.000,318.147 120.000 C 316.540 120.000,304.775 109.784,289.916 95.486 C 272.026 78.271,270.223 76.651,262.252 70.645 C 240.600 54.330,222.632 48.130,182.185 43.021 C 158.689 40.053,148.168 37.696,136.509 32.789 C 132.189 30.971,79.837 5.726,71.578 1.479 C 68.722 0.009,67.766 -0.264,67.424 0.289 M94.174 15.164 C 136.774 35.876,137.035 35.992,147.731 39.150 C 156.793 41.825,162.486 42.856,183.025 45.539 C 233.573 52.143,250.291 60.094,285.209 94.135 C 288.537 97.379,293.151 101.830,295.462 104.024 C 297.773 106.219,299.891 108.270,300.168 108.583 C 302.360 111.054,312.151 118.876,317.815 122.681 C 322.906 126.101,335.320 132.392,373.782 151.047 L 391.429 159.605 391.648 161.231 C 392.161 165.036,392.182 166.441,391.731 166.614 C 391.208 166.815,340.850 142.460,328.472 136.020 C 313.423 128.191,305.978 121.894,281.425 96.229 C 269.773 84.050,261.122 76.288,253.782 71.425 C 232.497 57.326,218.603 53.180,180.000 49.409 C 142.639 45.759,141.764 45.498,101.849 26.124 C 70.703 11.006,62.829 7.119,62.789 6.842 C 62.757 6.623,68.100 2.689,68.429 2.689 C 68.477 2.689,80.062 8.303,94.174 15.164 M78.992 17.643 C 143.043 48.859,141.039 48.171,177.815 51.584 C 185.408 52.289,193.707 53.207,201.681 54.224 C 220.779 56.661,239.051 63.729,254.022 74.471 C 262.000 80.195,268.069 85.919,291.933 110.230 C 312.883 131.574,311.709 130.839,370.147 159.159 L 392.227 169.859 392.423 172.072 C 392.912 177.593,392.935 177.186,392.145 176.940 C 390.993 176.582,333.844 148.816,327.502 145.533 C 310.627 136.798,303.413 130.561,281.638 105.882 C 249.134 69.044,229.942 59.346,183.529 56.311 C 179.370 56.039,172.449 55.586,168.149 55.304 C 154.472 54.407,147.198 53.365,135.126 50.571 C 130.606 49.525,122.760 46.131,105.042 37.558 C 82.544 26.671,55.275 13.431,54.810 13.167 C 53.867 12.633,54.165 12.248,56.994 10.350 L 59.855 8.431 62.280 9.556 C 63.614 10.175,71.134 13.814,78.992 17.643 M77.369 26.764 C 123.000 48.949,126.996 50.782,133.741 52.632 C 143.731 55.373,157.719 57.248,173.613 57.979 C 178.055 58.183,191.370 59.224,197.479 59.845 C 230.721 63.224,250.660 74.536,278.332 105.714 C 293.631 122.952,299.612 129.129,307.015 135.336 C 315.082 142.098,320.051 144.753,370.084 169.028 C 382.008 174.814,392.035 179.746,392.365 179.988 C 393.068 180.503,393.683 187.227,393.026 187.227 C 392.528 187.227,331.613 157.564,325.724 154.454 C 306.057 144.066,301.226 139.792,278.809 112.943 C 245.732 73.327,228.077 64.315,180.672 62.854 C 174.941 62.678,168.739 62.457,166.891 62.364 C 132.590 60.635,131.810 60.409,89.640 39.943 C 76.666 33.646,61.513 26.298,55.966 23.613 C 50.420 20.928,45.766 18.628,45.623 18.502 C 45.289 18.205,50.705 14.454,51.468 14.454 C 51.787 14.454,63.442 19.993,77.369 26.764 M78.655 37.229 C 133.895 64.103,131.832 63.506,174.286 64.875 C 205.496 65.881,219.179 68.390,234.004 75.826 C 248.565 83.128,258.234 92.023,280.378 118.487 C 303.891 146.587,304.920 147.313,356.975 172.539 C 379.145 183.282,393.025 190.051,393.529 190.366 C 393.822 190.548,393.950 191.693,393.950 194.133 L 393.950 197.639 392.185 196.842 C 387.234 194.608,325.079 164.249,320.114 161.639 C 303.456 152.885,297.174 147.054,276.388 121.053 C 255.429 94.835,246.991 86.974,231.261 79.013 C 222.581 74.620,217.744 73.179,204.054 70.906 C 200.311 70.285,190.522 69.901,170.252 69.582 C 129.726 68.944,128.300 68.595,89.748 49.882 C 43.369 27.369,37.145 24.307,37.176 24.022 C 37.194 23.854,38.469 22.856,40.008 21.804 L 42.806 19.892 44.512 20.671 C 45.451 21.099,60.815 28.550,78.655 37.229 M60.231 38.193 C 115.679 65.156,113.414 64.112,123.193 67.219 C 134.154 70.701,141.693 71.455,168.403 71.741 C 227.433 72.373,239.815 78.383,275.452 123.697 C 292.733 145.672,301.542 154.042,315.798 162.032 C 320.380 164.599,323.942 166.359,360.504 184.108 C 392.796 199.785,394.242 200.524,394.427 201.427 C 394.513 201.844,394.675 203.506,394.787 205.121 L 394.992 208.058 391.194 206.258 C 389.104 205.268,381.798 201.733,374.958 198.401 C 368.118 195.070,353.597 188.010,342.689 182.711 C 298.393 161.195,296.470 159.676,271.135 126.218 C 245.017 91.726,232.275 82.652,203.108 77.772 C 200.338 77.308,195.129 77.184,169.412 76.970 C 121.324 76.570,127.780 78.342,67.731 49.071 C 56.639 43.664,46.202 38.600,44.538 37.816 C 39.832 35.602,29.106 30.231,28.805 29.939 C 28.513 29.656,33.809 25.882,34.498 25.882 C 34.728 25.882,46.307 31.422,60.231 38.193 M30.661 33.727 C 33.117 34.899,50.555 43.344,69.412 52.493 C 111.838 73.078,113.212 73.693,121.848 75.967 C 132.427 78.754,134.652 78.910,167.395 79.155 C 197.100 79.377,198.797 79.456,208.235 81.040 C 222.101 83.368,233.681 89.175,244.580 99.265 C 245.706 100.307,246.762 101.050,246.927 100.916 C 247.092 100.782,247.144 100.780,247.043 100.913 C 246.941 101.045,248.530 102.885,250.572 105.001 C 255.876 110.497,263.035 119.239,270.424 129.244 C 292.267 158.818,299.069 164.300,336.134 182.202 C 342.328 185.194,355.185 191.427,364.706 196.054 C 374.227 200.681,384.913 205.865,388.453 207.574 C 395.717 211.083,395.082 210.377,395.480 215.378 C 395.601 216.903,395.608 218.151,395.495 218.151 C 395.382 218.151,387.539 214.385,378.065 209.783 C 368.591 205.180,351.613 196.932,340.336 191.453 C 293.048 168.479,292.290 167.877,266.384 132.773 C 234.319 89.324,218.746 81.908,165.378 84.677 C 136.314 86.185,120.813 83.924,102.185 75.457 C 91.109 70.423,21.239 36.498,20.557 35.823 C 20.075 35.346,20.292 35.139,23.866 32.671 C 25.829 31.315,25.500 31.264,30.661 33.727 M24.882 40.794 C 28.483 42.524,40.050 48.139,50.588 53.270 C 110.586 82.486,112.981 83.525,125.378 85.685 C 134.739 87.317,137.085 87.379,176.975 87.041 C 205.957 86.796,216.871 88.925,229.843 97.351 C 231.375 98.346,232.767 99.160,232.936 99.160 C 233.105 99.160,233.365 99.353,233.513 99.589 C 233.661 99.824,235.444 101.375,237.475 103.034 C 244.989 109.171,249.933 114.756,261.119 129.748 C 278.171 152.601,279.140 153.830,285.430 160.609 C 296.900 172.967,301.265 175.382,386.376 216.447 C 392.294 219.303,395.521 221.040,395.674 221.453 C 396.099 222.601,396.413 228.235,396.053 228.235 C 395.759 228.235,387.524 224.277,362.689 212.196 C 359.084 210.443,351.597 206.812,346.050 204.128 C 289.107 176.573,287.069 175.082,265.067 144.872 C 240.944 111.748,231.856 103.033,215.158 97.009 C 203.696 92.874,200.828 92.706,149.412 93.138 C 120.212 93.383,116.449 92.391,80.168 74.871 C 70.000 69.960,24.956 48.069,16.387 43.873 C 10.992 41.231,11.145 41.524,14.034 39.377 C 17.121 37.084,17.179 37.091,24.882 40.794 M37.936 57.022 C 91.710 83.169,100.476 87.319,107.395 89.907 C 121.282 95.102,133.128 96.381,158.992 95.482 C 187.290 94.498,193.297 94.638,202.967 96.509 C 204.940 96.891,206.857 97.245,207.227 97.297 C 207.597 97.348,208.126 97.473,208.403 97.575 C 208.681 97.677,210.528 98.225,212.509 98.794 C 227.215 103.011,239.223 113.438,255.947 136.512 C 276.095 164.310,282.773 171.828,294.790 180.244 C 301.104 184.665,312.638 190.539,364.202 215.589 C 399.794 232.881,396.515 230.998,396.813 234.312 C 397.229 238.920,397.323 238.927,386.218 233.526 C 382.244 231.592,365.832 223.621,349.748 215.811 C 300.340 191.821,294.142 188.512,285.211 181.356 C 281.934 178.730,275.129 172.210,273.782 170.405 C 273.412 169.910,271.470 167.555,269.466 165.172 C 265.290 160.206,263.666 158.071,254.992 146.140 C 227.883 108.854,213.582 100.784,176.134 101.644 C 137.619 102.528,129.257 102.307,119.023 100.134 C 106.136 97.397,106.269 97.456,34.370 62.523 L 5.042 48.273 5.042 46.873 C 5.042 45.538,7.525 43.025,8.845 43.025 C 9.013 43.025,22.104 49.324,37.936 57.022 M40.264 68.028 C 95.818 95.000,99.194 96.575,107.677 99.466 C 120.940 103.987,128.430 104.792,152.941 104.333 C 192.343 103.594,199.539 104.130,211.308 108.675 C 225.560 114.179,234.006 121.748,249.831 143.193 C 280.153 184.288,280.906 184.913,327.227 207.486 C 334.252 210.909,348.319 217.749,358.487 222.686 C 390.293 238.127,392.941 239.430,392.941 239.640 C 392.941 239.817,388.466 242.896,387.315 243.510 C 386.697 243.840,307.213 205.164,295.630 198.897 C 278.221 189.477,269.444 181.087,249.603 154.895 C 230.504 129.682,221.568 121.581,206.720 116.016 C 196.362 112.134,194.015 111.911,160.000 111.591 C 112.398 111.142,116.126 112.189,53.445 81.679 C 46.143 78.124,32.529 71.514,23.193 66.989 C 13.857 62.464,6.120 58.662,6.000 58.540 C 5.571 58.105,5.279 51.429,5.690 51.429 C 5.901 51.429,21.460 58.898,40.264 68.028 M21.494 68.792 C 103.074 108.444,103.204 108.503,116.807 111.427 C 126.962 113.610,132.669 113.942,160.168 113.949 C 188.856 113.957,192.908 114.273,202.689 117.257 C 218.749 122.158,227.976 130.203,248.236 156.975 C 264.431 178.374,270.949 185.340,282.418 193.507 C 291.277 199.814,301.874 205.208,372.566 239.393 C 378.276 242.154,383.308 244.650,383.749 244.939 L 384.551 245.464 383.452 246.282 C 382.848 246.732,381.470 247.639,380.391 248.298 L 378.429 249.496 371.483 246.114 C 367.663 244.253,361.437 241.229,357.647 239.392 C 298.073 210.524,289.321 206.074,279.664 199.751 C 267.655 191.888,260.663 185.016,245.202 165.882 C 234.652 152.827,232.914 150.799,226.387 143.928 C 219.722 136.912,209.947 130.366,201.475 127.246 C 190.307 123.133,181.911 122.169,152.941 121.672 C 136.306 121.387,134.146 121.265,125.889 120.145 C 114.047 118.539,104.198 115.473,89.761 108.899 C 77.781 103.444,7.537 69.451,6.847 68.776 C 6.422 68.360,5.877 61.513,6.269 61.513 C 6.406 61.513,13.257 64.788,21.494 68.792 M34.286 84.879 C 114.458 123.905,112.178 123.153,153.109 124.021 C 185.835 124.714,194.689 126.037,206.272 131.964 C 217.873 137.900,224.463 144.083,241.168 164.706 C 258.925 186.628,266.095 193.748,278.824 202.102 C 287.313 207.674,297.341 212.787,347.227 236.978 C 359.521 242.940,371.076 248.567,372.904 249.482 L 376.228 251.146 373.242 253.132 C 371.136 254.534,370.058 255.060,369.582 254.918 C 368.528 254.602,316.375 229.270,300.840 221.527 C 278.927 210.606,272.469 206.801,263.072 199.272 C 259.253 196.213,250.314 188.173,249.603 187.158 C 249.377 186.835,247.749 185.016,245.987 183.117 C 244.225 181.218,240.393 176.941,237.471 173.613 C 216.854 150.133,204.715 141.077,188.403 137.006 C 187.109 136.683,185.218 136.211,184.202 135.957 C 179.093 134.683,169.941 133.679,155.126 132.767 C 115.485 130.329,110.145 128.802,64.874 106.966 C 47.531 98.601,7.339 79.050,7.218 78.920 C 6.807 78.479,6.693 71.515,7.099 71.681 C 7.354 71.786,19.588 77.725,34.286 84.879 M33.277 94.299 C 91.705 122.688,97.782 125.435,109.748 128.869 C 121.254 132.171,134.568 134.091,151.933 134.952 C 194.663 137.069,207.906 143.157,233.110 172.269 C 235.511 175.042,237.645 177.462,237.852 177.647 C 238.060 177.832,240.048 180.025,242.270 182.521 C 261.476 204.087,271.539 210.444,333.782 240.339 C 347.818 247.080,367.395 256.749,367.395 256.940 C 367.395 257.042,366.071 258.012,364.454 259.097 L 361.513 261.068 333.950 247.675 C 260.271 211.874,259.313 211.280,232.094 184.541 C 200.372 153.377,190.755 148.507,152.437 144.197 C 113.454 139.812,107.999 137.927,43.697 106.610 C 35.655 102.694,24.311 97.174,18.487 94.345 L 7.899 89.201 7.663 85.861 C 7.403 82.186,7.501 81.408,8.155 81.950 C 8.384 82.139,19.689 87.696,33.277 94.299 " stroke="none" fill="#000000" fill-rule="evenodd"></path></g></svg>